<svg id="visual" viewBox="0 0 1920 1080" width="1920" height="1080" xmlns="http://www.w3.org/2000/svg" xmlns:xlink="http://www.w3.org/1999/xlink" version="1.1"><rect x="0" y="0" width="1920" height="1080" fill="#f5f5f5"></rect><defs><linearGradient id="grad1_0" x1="43.8%" y1="0%" x2="100%" y2="100%"><stop offset="14.444444444444446%" stop-color="#f5f5f5" stop-opacity="1"></stop><stop offset="85.55555555555554%" stop-color="#f5f5f5" stop-opacity="1"></stop></linearGradient></defs><defs><linearGradient id="grad2_0" x1="0%" y1="0%" x2="56.3%" y2="100%"><stop offset="14.444444444444446%" stop-color="#f5f5f5" stop-opacity="1"></stop><stop offset="85.55555555555554%" stop-color="#f5f5f5" stop-opacity="1"></stop></linearGradient></defs><g transform="translate(1920, 0)"><path d="M0 378C-38.6 340.8 -77.2 303.6 -117.5 283.6C-157.7 263.6 -199.6 260.8 -241.8 241.8C-284 222.8 -326.5 187.7 -349.2 144.7C-372 101.7 -375 50.8 -378 0L0 0Z" fill="#0097d7"></path></g><g transform="translate(0, 1080)"><path d="M0 -378C37.2 -345.1 74.5 -312.2 124 -299.3C173.5 -286.5 235.3 -293.7 267.3 -267.3C299.3 -240.8 301.6 -180.7 315 -130.5C328.5 -80.3 353.3 -40.2 378 0L0 0Z" fill="#0097d7"></path></g></svg>